PathFileType	4	(X/Y/Z)	/Users/itak/Documents/Research/Walk-IL/dataset/trc/00216_00009.trc
DataRate	CameraRate	NumFrames	NumMarkers	Units	OrigDataRate	OrigDataStartFrame	OrigNumFrames
100.000000	100.000000	4	53	mm	100.000000	387	517
Frame#	Time	RPSI			LPSI			L3			STRN			T10			C7			CLAV			RBAK			LBAK			LSHO			LUPA			LAEL			LAOL			LWTS			LWPS			LFRA			LIFD			LHPS			LHTS			RSHO			RUPA			RAEL			RAOL			RWPS			RFRA			RIFD			RHTS			RHPS			RBHD			LFHD			RFHD			LBHD			LHIP			RHIP			RASI			LASI			LKNE			LTHI			LANK			LTIP			LTOE			LMT1			LMT5			LHEE			RKNE			RTHI			RANK			RTIP			RTOE			RMT1			RMT5			RHEE			RWTS			
		X1	Y1	Z1	X2	Y2	Z2	X3	Y3	Z3	X4	Y4	Z4	X5	Y5	Z5	X6	Y6	Z6	X7	Y7	Z7	X8	Y8	Z8	X9	Y9	Z9	X10	Y10	Z10	X11	Y11	Z11	X12	Y12	Z12	X13	Y13	Z13	X14	Y14	Z14	X15	Y15	Z15	X16	Y16	Z16	X17	Y17	Z17	X18	Y18	Z18	X19	Y19	Z19	X20	Y20	Z20	X21	Y21	Z21	X22	Y22	Z22	X23	Y23	Z23	X24	Y24	Z24	X25	Y25	Z25	X26	Y26	Z26	X27	Y27	Z27	X28	Y28	Z28	X29	Y29	Z29	X30	Y30	Z30	X31	Y31	Z31	X32	Y32	Z32	X33	Y33	Z33	X34	Y34	Z34	X35	Y35	Z35	X36	Y36	Z36	X37	Y37	Z37	X38	Y38	Z38	X39	Y39	Z39	X40	Y40	Z40	X41	Y41	Z41	X42	Y42	Z42	X43	Y43	Z43	X44	Y44	Z44	X45	Y45	Z45	X46	Y46	Z46	X47	Y47	Z47	X48	Y48	Z48	X49	Y49	Z49	X50	Y50	Z50	X51	Y51	Z51	X52	Y52	Z52	X53	Y53	Z53	

388	3.87	431.7881164550781	1001.938720703125	-117.3708343505859	426.3796997070312	1015.734313964844	-235.2503814697266	420.4945983886719	1094.55322265625	-197.2464599609375	665.9517211914062	1289.001708984375	-210.2980194091797	411.5618896484375	1221.831665039062	-197.7316589355469	468.397216796875	1484.659057617188	-210.8713989257812	636.8294067382812	1406.030029296875	-210.0299987792969	399.2353515625	1346.613159179688	-132.0194396972656	447.7994079589844	1443.782592773438	-321.3417053222656	537.2086791992188	1446.866455078125	-373.4818420410156	529.061767578125	1331.873779296875	-455.2507019042969	605.1633911132812	1138.694458007812	-492.521484375	540.6856079101562	1092.5986328125	-454.7577819824219	798.8858032226562	999.468994140625	-409.0372924804688	799.728515625	970.6178588867188	-488.4882202148438	680.7517700195312	1060.580444335938	-497.1899719238281	924.2376098632812	848.6493530273438	-400.9730834960938	865.6075439453125	910.7615966796875	-474.8454284667969	897.8829345703125	923.1453247070312	-425.2691040039062	534.25390625	1449.87890625	-41.87494277954102	518.2124633789062	1386.514404296875	27.11755561828613	498.8159790039062	1106.649536132812	71.33628845214844	464.0447692871094	1098.192504882812	-16.83270263671875	588.94482421875	880.1329345703125	96.54727172851562	527.51220703125	1038.906372070312	85.27424621582031	656.2000122070312	702.765380859375	28.76777648925781	683.1483764648438	774.721435546875	50.1558723449707	631.5620727539062	774.315673828125	100.4386978149414	502.4600830078125	1639.666381835938	-163.9079895019531	701.6375732421875	1697.351440429688	-257.0658874511719	700.35107421875	1695.962768554688	-156.9756317138672	547.8668823242188	1650.333618164062	-295.8880615234375	517.8558959960938	966.1005859375	-385.4463500976562	540.776611328125	967.11962890625	-19.21399307250977	628.4429931640625	1020.756713867188	-62.62796020507812	621.5148315429688	1009.746948242188	-344.1552734375	521.3623046875	485.5151977539062	-321.381103515625	530.8602905273438	628.8873291015625	-355.7606506347656	299.3129577636719	51.26160049438477	-256.0836486816406	408.7121276855469	277.8026428222656	-299.6836853027344	516.5758056640625	35.70249557495117	-222.1233062744141	452.5319213867188	38.34011077880859	-174.849365234375	419.9703063964844	31.70072174072266	-287.2941284179688	244.8953704833984	76.97179412841797	-201.8345489501953	734.113525390625	514.9682006835938	-58.71532821655273	647.3187255859375	766.0986328125	-12.46377944946289	824.74658203125	25.65493774414062	-92.95967102050781	782.8222045898438	405.5489807128906	-77.02774810791016	1024.130737304688	85.95830535888672	-130.7653045654297	970.6614379882812	74.37285614013672	-175.591552734375	933.4945678710938	39.67429351806641	-69.44532775878906	762.845703125	22.21833419799805	-151.6227874755859	639.7739868164062	894.5581665039062	31.82712364196777	
389	3.88	441.0441589355469	1001.065063476562	-115.8880844116211	435.1198425292969	1014.891906738281	-233.8302307128906	429.3281860351562	1093.350341796875	-195.8589630126953	673.9970703125	1288.367919921875	-209.6408538818359	420.0328979492188	1220.53466796875	-196.3306121826172	475.9301147460938	1483.62158203125	-209.4325561523438	644.5337524414062	1405.28662109375	-209.1002197265625	407.2037353515625	1345.177490234375	-130.7308502197266	455.1445922851562	1442.786376953125	-319.8555603027344	544.3895874023438	1446.012817382812	-372.3640747070312	535.5382080078125	1330.899780273438	-454.1991882324219	610.5314331054688	1137.332763671875	-491.931396484375	545.74853515625	1091.63037109375	-454.1060791015625	803.2957763671875	996.888671875	-408.4110717773438	804.068359375	968.1449584960938	-487.8907775878906	685.6361694335938	1058.811157226562	-496.5889282226562	927.3853759765625	845.00732421875	-400.2891540527344	869.4764404296875	907.7186889648438	-474.2181701660156	902.260986328125	920.9464111328125	-424.6661376953125	542.1644897460938	1448.598266601562	-40.58439636230469	526.2704467773438	1385.051635742188	28.28950881958008	506.8529663085938	1105.053466796875	71.70913696289062	472.1534118652344	1096.897338867188	-16.37455940246582	596.3151245117188	878.203369140625	96.29191589355469	535.399658203125	1037.226928710938	85.438720703125	663.002197265625	700.8026733398438	27.99051856994629	690.1250610351562	772.614501953125	49.49258041381836	638.61962890625	772.2276611328125	99.84159088134766	509.6361694335938	1638.6240234375	-162.4547271728516	708.5858154296875	1696.983642578125	-255.7116241455078	707.3580322265625	1695.486938476562	-155.6096496582031	554.9348754882812	1649.57763671875	-294.4810180664062	525.5855102539062	965.1724243164062	-384.6807250976562	550.928955078125	966.1985473632812	-18.34127426147461	638.0466918945312	1019.743713378906	-62.41907119750977	629.7033081054688	1008.901611328125	-344.0638427734375	528.2398071289062	484.5280456542969	-321.5541381835938	538.0872192382812	627.9965209960938	-355.7174682617188	299.968017578125	53.14580535888672	-256.4871215820312	412.72216796875	278.3439331054688	-300.0091857910156	516.6588134765625	35.64717864990234	-222.1980133056641	452.7660217285156	38.70834732055664	-175.0204620361328	420.1845703125	31.7702693939209	-287.3761901855469	245.7238311767578	79.91281890869141	-202.4387817382812	742.7442626953125	513.8616943359375	-60.00289154052734	657.2518310546875	764.902099609375	-12.95196533203125	827.0975952148438	24.66119003295898	-94.04183959960938	790.4955444335938	403.62646484375	-78.60137176513672	1027.490478515625	81.13610076904297	-132.9088897705078	973.7053833007812	69.96405792236328	-177.5839538574219	936.051513671875	37.19974136352539	-71.08287811279297	765.1337280273438	21.81922340393066	-152.9505157470703	647.0776977539062	892.6046142578125	31.50628471374512	
390	3.89	450.2024841308594	1000.326721191406	-114.4337921142578	443.8703918457031	1014.107360839844	-232.4788513183594	438.2554931640625	1092.229858398438	-194.4675445556641	682.1096801757812	1287.83203125	-208.948486328125	428.6126098632812	1219.328735351562	-194.8894958496094	483.5311889648438	1482.684814453125	-207.9556274414062	652.300537109375	1404.636352539062	-208.1368408203125	415.231201171875	1343.847045898438	-129.3916931152344	462.5480651855469	1441.874633789062	-318.3162536621094	551.6210327148438	1445.242309570312	-371.227294921875	542.0065307617188	1329.962768554688	-453.0946044921875	615.786376953125	1135.975952148438	-491.2744750976562	550.6785278320312	1090.734375	-453.3468322753906	807.4353637695312	994.0245361328125	-407.8642272949219	808.0665893554688	965.4439697265625	-487.3880310058594	690.296142578125	1056.953979492188	-495.9752197265625	930.1360473632812	840.9931030273438	-399.9346313476562	872.9367065429688	904.3763427734375	-473.7875061035156	906.0687866210938	918.5354614257812	-424.1124267578125	550.1494140625	1447.391723632812	-39.25432586669922	534.436279296875	1383.650268554688	29.50083160400391	515.0838623046875	1103.522827148438	72.13968658447266	480.3724670410156	1095.643920898438	-15.83397769927979	603.8506469726562	876.3275756835938	96.0870361328125	543.4923706054688	1035.611328125	85.65892028808594	669.9216918945312	698.8880004882812	27.24908638000488	697.222900390625	770.5538330078125	48.82826614379883	645.8118286132812	770.1876220703125	99.27202606201172	516.8684692382812	1637.697387695312	-160.9838562011719	715.6039428710938	1696.710815429688	-254.3344573974609	714.4328002929688	1695.118896484375	-154.2208557128906	562.0665283203125	1648.9228515625	-293.0516357421875	533.4386596679688	964.23876953125	-383.8935241699219	561.0438232421875	965.4776000976562	-17.43571853637695	647.6234130859375	1018.791320800781	-62.18128967285156	637.9993286132812	1008.085205078125	-343.9265441894531	535.3323364257812	483.4915771484375	-321.6652221679688	545.5399169921875	627.0633544921875	-355.6376037597656	300.7133178710938	55.20412445068359	-256.9707641601562	416.9015197753906	278.9543151855469	-300.346923828125	516.7661743164062	35.59928894042969	-222.2894439697266	453.0108032226562	39.10706329345703	-175.1910858154297	420.4530639648438	31.86307525634766	-287.4620666503906	246.6817626953125	83.04528045654297	-203.1056213378906	751.6642456054688	513.0986328125	-61.26269912719727	667.36572265625	764.0057373046875	-13.49718379974365	828.8721923828125	24.16161155700684	-94.74624633789062	798.3565673828125	401.9837646484375	-80.13224029541016	1030.523315429688	75.34848785400391	-135.0063323974609	976.3535766601562	64.85042572021484	-179.4434967041016	938.0740966796875	34.74861907958984	-72.36900329589844	766.8735961914062	22.05140495300293	-153.9273071289062	654.50341796875	890.6849365234375	31.19683456420898	
391	3.9	459.1766357421875	999.7837524414062	-113.0796813964844	452.6196899414062	1013.409851074219	-231.2514038085938	447.2244567871094	1091.2412109375	-193.1274566650391	690.2783203125	1287.429443359375	-208.2152557373047	437.2709045410156	1218.275024414062	-193.4384307861328	491.2063293457031	1481.89306640625	-206.4534149169922	660.1276245117188	1404.116943359375	-207.1391296386719	423.3138732910156	1342.678588867188	-128.0161895751953	470.0212707519531	1441.09326171875	-316.7366638183594	558.919921875	1444.602416992188	-370.081298828125	548.4775390625	1329.11328125	-451.9409790039062	620.9154663085938	1134.665283203125	-490.5294494628906	555.4683837890625	1089.960327148438	-452.45556640625	811.2835693359375	990.9097290039062	-407.3834838867188	811.6995239257812	962.5574951171875	-486.9754638671875	694.710693359375	1055.048095703125	-495.3332824707031	932.4584350585938	836.6341552734375	-399.8994140625	875.9639892578125	900.77783203125	-473.5467834472656	909.2922973632812	915.9200439453125	-423.6085205078125	558.1979370117188	1446.302001953125	-37.89556503295898	542.6968383789062	1382.3515625	30.74020385742188	523.5174560546875	1102.100830078125	72.61907958984375	488.696533203125	1094.474243164062	-15.21851444244385	611.5512084960938	874.5520629882812	95.93626403808594	551.794921875	1034.106567382812	85.92543029785156	676.9304809570312	697.0537719726562	26.55253982543945	704.4271240234375	768.5709228515625	48.16621017456055	653.1327514648438	768.2388916015625	98.74149322509766	524.1707153320312	1636.92626953125	-159.5036010742188	722.7026977539062	1696.552856445312	-252.9481811523438	721.590576171875	1694.881958007812	-152.8237762451172	569.2659301757812	1648.400024414062	-291.6060791015625	541.4765625	963.3218383789062	-383.0827331542969	571.039306640625	965.0337524414062	-16.51568794250488	657.11474609375	1017.97021484375	-61.89842987060547	646.4127807617188	1007.322387695312	-343.7215270996094	542.67138671875	482.4344177246094	-321.7107543945312	553.2429809570312	626.1039428710938	-355.5084838867188	301.5733947753906	57.45254516601562	-257.5169677734375	421.2625427246094	279.66650390625	-300.678955078125	516.9065551757812	35.56194686889648	-222.3995361328125	453.2854614257812	39.54730987548828	-175.357666015625	420.7866516113281	31.98673248291016	-287.5409545898438	247.7996826171875	86.3984375	-203.8177490234375	760.912841796875	512.7806396484375	-62.48371887207031	677.5826416015625	763.4844360351562	-14.06323337554932	830.3043212890625	24.15857124328613	-95.11922454833984	806.4677734375	400.7352600097656	-81.60788726806641	1033.357299804688	68.97710418701172	-137.0016937255859	978.7403564453125	59.39297103881836	-181.0962066650391	939.7403564453125	32.51211929321289	-73.27560424804688	768.301025390625	22.82334518432617	-154.6039581298828	662.04638671875	888.8345336914062	30.89532089233398	
